{
.appVersion = "3343";
.formatVersion = 3;
DisplayStrings = (
a
);
axes = (
{
name = Hmmness;
tag = HMMM;
}
);
date = "2024-03-08 05:38:53 +0000";
familyName = Hmm;
fontMaster = (
{
axesValues = (
0
);
id = m01;
metricValues = (
{
over = 16;
pos = 800;
},
{
over = 16;
pos = 700;
},
{
over = 16;
pos = 500;
},
{
over = -16;
},
{
over = -16;
pos = -200;
},
{
}
);
name = Regular;
},
{
axesValues = (
100
);
id = m002;
metricValues = (
{
over = 16;
pos = 800;
},
{
over = 16;
pos = 700;
},
{
over = 16;
pos = 500;
},
{
over = -16;
},
{
over = -16;
pos = -200;
},
{
}
);
name = Var;
}
);
glyphs = (
{
glyphname = A;
lastChange = "2024-03-08 20:18:20 +0000";
layers = (
{
layerId = m01;
shapes = (
{
closed = 1;
nodes = (
(81,0,l),
(300,678,l),
(519,0,l),
(552,0,l),
(319,710,l),
(281,710,l),
(48,0,l)
);
},
{
closed = 1;
nodes = (
(442,265,l),
(158,265,l),
(148,235,l),
(452,235,l)
);
}
);
width = 600;
},
{
layerId = m002;
shapes = (
{
closed = 1;
nodes = (
(81,0,l),
(298,180,l),
(519,0,l),
(552,0,l),
(298,710,l),
(298,710,l),
(48,0,l)
);
},
{
closed = 1;
nodes = (
(512,30,l),
(90,30,l),
(76,0,l),
(526,0,l)
);
}
);
width = 600;
}
);
unicode = (65,97);
},
{
glyphname = B;
lastChange = "2024-03-08 20:18:20 +0000";
layers = (
{
layerId = m01;
shapes = (
{
closed = 1;
nodes = (
(307,0,ls),
(418,0,o),
(537,98,o),
(537,189,qs),
(537,268,o),
(426,360,o),
(332,360,q),
(332,354,l),
(383,354,o),
(462,396,o),
(507,472,o),
(507,520,qs),
(507,611,o),
(383,710,o),
(267,710,qs),
(90,710,l),
(90,0,l)
);
},
{
closed = 1;
nodes = (
(122,30,l),
(122,339,l),
(307,339,ls),
(397,339,o),
(503,258,o),
(503,189,qs),
(503,109,o),
(405,30,o),
(307,30,qs)
);
},
{
closed = 1;
nodes = (
(122,369,l),
(122,680,l),
(267,680,ls),
(366,680,o),
(473,597,o),
(473,520,qs),
(473,447,o),
(366,369,o),
(267,369,qs)
);
}
);
width = 600;
},
{
layerId = m002;
shapes = (
{
closed = 1;
nodes = (
(307,0,ls),
(418,0,o),
(537,98,o),
(537,189,qs),
(537,268,o),
(426,360,o),
(332,360,q),
(332,354,l),
(383,354,o),
(462,396,o),
(507,472,o),
(507,520,qs),
(507,611,o),
(383,710,o),
(267,710,qs),
(90,710,l),
(90,0,l)
);
},
{
closed = 1;
nodes = (
(122,30,l),
(122,339,l),
(173,339,ls),
(263,339,o),
(369,258,o),
(369,189,qs),
(369,109,o),
(271,30,o),
(173,30,qs)
);
},
{
closed = 1;
nodes = (
(122,369,l),
(122,680,l),
(133,680,ls),
(232,680,o),
(339,597,o),
(339,520,qs),
(339,447,o),
(232,369,o),
(133,369,qs)
);
}
);
width = 600;
}
);
unicode = (66,98);
},
{
glyphname = C;
lastChange = "2024-03-08 20:18:20 +0000";
layers = (
{
layerId = m01;
shapes = (
{
closed = 1;
nodes = (
(522,230,l),
(501,126,o),
(395,16,o),
(315,16,qs),
(246,16,o),
(142,98,o),
(86,251,o),
(86,354,qs),
(86,458,o),
(142,611,o),
(246,694,o),
(315,694,qs),
(393,694,o),
(496,591,o),
(516,494,q),
(550,498,l),
(526,608,o),
(404,726,o),
(315,726,qs),
(235,726,o),
(116,636,o),
(52,467,o),
(52,354,qs),
(52,241,o),
(116,74,o),
(235,-16,o),
(315,-16,qs),
(379,-16,o),
(478,40,o),
(543,149,o),
(556,226,q)
);
}
);
width = 600;
},
{
layerId = m002;
shapes = (
{
closed = 1;
nodes = (
(516,494,l),
(542,227,o),
(394,35,o),
(315,35,qs),
(264,35,o),
(207,118,o),
(200,235,o),
(206,318,qs),
(208,349,o),
(242,452,o),
(312,500,o),
(350,500,qs),
(428,500,o),
(500,500,o),
(516,494,q),
(550,498,l),
(526,608,o),
(404,726,o),
(315,726,qs),
(235,726,o),
(116,636,o),
(52,467,o),
(52,354,qs),
(52,241,o),
(116,74,o),
(235,-16,o),
(315,-16,qs),
(379,-16,o),
(550,152,o),
(568,448,o),
(550,498,q)
);
}
);
width = 600;
}
);
unicode = (67,99);
},
{
glyphname = D;
lastChange = "2024-03-08 20:18:20 +0000";
layers = (
{
layerId = m01;
shapes = (
{
closed = 1;
nodes = (
(95,710,l),
(95,0,l),
(243,0,ls),
(341,0,o),
(481,82,o),
(555,241,o),
(555,354,qs),
(555,467,o),
(480,627,o),
(337,710,o),
(237,710,qs)
);
},
{
closed = 1;
nodes = (
(127,30,l),
(127,680,l),
(237,680,ls),
(372,680,o),
(521,510,o),
(521,354,qs),
(521,199,o),
(372,30,o),
(237,30,qs)
);
}
);
width = 600;
},
{
layerId = m002;
shapes = (
{
closed = 1;
nodes = (
(95,710,l),
(95,0,l),
(243,0,ls),
(341,0,o),
(481,82,o),
(555,241,o),
(555,354,qs),
(555,467,o),
(480,627,o),
(337,710,o),
(237,710,qs)
);
},
{
closed = 1;
nodes = (
(127,30,l),
(127,680,l),
(130,680,ls),
(265,680,o),
(414,510,o),
(414,354,qs),
(414,199,o),
(265,30,o),
(130,30,qs)
);
}
);
width = 600;
}
);
unicode = (68,100);
},
{
glyphname = E;
lastChange = "2024-03-08 20:18:20 +0000";
layers = (
{
layerId = m01;
shapes = (
{
closed = 1;
nodes = (
(100,0,l),
(527,0,l),
(527,30,l),
(132,30,l),
(132,339,l),
(507,339,l),
(507,369,l),
(132,369,l),
(132,680,l),
(519,680,l),
(519,710,l),
(100,710,l)
);
}
);
width = 600;
},
{
layerId = m002;
shapes = (
{
closed = 1;
nodes = (
(100,0,l),
(132,0,l),
(132,30,l),
(132,30,l),
(507,339,l),
(507,339,l),
(507,369,l),
(507,369,l),
(132,680,l),
(132,680,l),
(132,710,l),
(100,710,l)
);
}
);
width = 600;
}
);
unicode = (69,101);
},
{
glyphname = F;
lastChange = "2024-03-08 20:18:20 +0000";
layers = (
{
layerId = m01;
shapes = (
{
closed = 1;
nodes = (
(110,0,l),
(142,0,l),
(142,350,l),
(135,339,l),
(501,339,l),
(501,369,l),
(135,369,l),
(142,344,l),
(142,689,l),
(135,680,l),
(519,680,l),
(519,710,l),
(110,710,l)
);
}
);
width = 600;
},
{
layerId = m002;
shapes = (
{
closed = 1;
nodes = (
(110,0,l),
(142,0,l),
(142,11,l),
(135,0,l),
(501,0,l),
(501,30,l),
(135,30,l),
(142,5,l),
(142,689,l),
(135,213,l),
(519,213,l),
(519,710,l),
(110,710,l)
);
}
);
width = 600;
}
);
unicode = (70,102);
},
{
glyphname = G;
lastChange = "2024-03-08 20:18:20 +0000";
layers = (
{
layerId = m01;
shapes = (
{
closed = 1;
nodes = (
(540,330,l),
(304,330,l),
(304,300,l),
(504,300,l),
(500,214,o),
(448,85,o),
(361,16,o),
(304,16,qs),
(234,16,o),
(133,98,o),
(80,250,o),
(80,354,qs),
(80,458,o),
(133,611,o),
(234,694,o),
(304,694,qs),
(371,694,o),
(476,588,o),
(501,497,q),
(534,501,l),
(508,605,o),
(385,726,o),
(304,726,qs),
(224,726,o),
(108,636,o),
(46,468,o),
(46,354,qs),
(46,241,o),
(108,74,o),
(224,-16,o),
(304,-16,qs),
(379,-16,o),
(491,88,o),
(512,177,q),
(501,195,l),
(508,0,l),
(540,0,l)
);
}
);
width = 600;
},
{
layerId = m002;
shapes = (
{
closed = 1;
nodes = (
(540,330,l),
(70,330,l),
(70,300,l),
(504,300,l),
(485,312,o),
(443,314,o),
(356,314,o),
(299,314,q),
(229,314,o),
(125,314,o),
(79,318,o),
(80,354,q),
(80,458,o),
(133,611,o),
(234,694,o),
(304,694,qs),
(371,694,o),
(476,588,o),
(501,497,q),
(534,501,l),
(508,605,o),
(385,726,o),
(304,726,qs),
(224,726,o),
(108,636,o),
(46,468,o),
(46,354,qs),
(46,241,o),
(108,74,o),
(224,-16,o),
(304,-16,qs),
(379,-16,o),
(491,88,o),
(512,177,q),
(501,195,l),
(508,0,l),
(540,0,l)
);
}
);
width = 600;
}
);
unicode = (71,103);
},
{
glyphname = H;
lastChange = "2024-03-08 20:18:20 +0000";
layers = (
{
layerId = m01;
shapes = (
{
closed = 1;
nodes = (
(120,0,l),
(120,359,l),
(111,349,l),
(488,349,l),
(480,359,l),
(480,0,l),
(512,0,l),
(512,710,l),
(480,710,l),
(480,370,l),
(488,379,l),
(111,379,l),
(120,370,l),
(120,710,l),
(88,710,l),
(88,0,l)
);
}
);
width = 600;
},
{
layerId = m002;
shapes = (
{
closed = 1;
nodes = (
(120,0,l),
(120,359,l),
(111,349,l),
(488,349,l),
(480,359,l),
(480,0,l),
(512,0,l),
(512,710,l),
(480,710,l),
(480,370,l),
(478,710,l),
(101,710,l),
(120,370,l),
(120,710,l),
(88,710,l),
(88,0,l)
);
}
);
width = 600;
}
);
unicode = (72,104);
},
{
glyphname = I;
lastChange = "2024-03-08 20:18:20 +0000";
layers = (
{
layerId = m01;
shapes = (
{
closed = 1;
nodes = (
(96,710,l),
(96,680,l),
(284,680,l),
(284,30,l),
(90,30,l),
(90,0,l),
(510,0,l),
(510,30,l),
(316,30,l),
(316,680,l),
(504,680,l),
(504,710,l)
);
}
);
width = 600;
},
{
layerId = m002;
shapes = (
{
closed = 1;
nodes = (
(96,710,l),
(96,680,l),
(284,680,l),
(284,30,l),
(90,30,l),
(90,0,l),
(510,0,l),
(510,30,l),
(510,30,l),
(504,680,l),
(504,680,l),
(504,710,l)
);
}
);
width = 600;
}
);
unicode = (73,105);
},
{
glyphname = J;
lastChange = "2024-03-08 20:18:20 +0000";
layers = (
{
layerId = m01;
shapes = (
{
closed = 1;
nodes = (
(55,232,l),
(55,159,o),
(110,47,o),
(208,-16,o),
(273,-16,qs),
(377,-16,o),
(493,126,o),
(493,248,qs),
(493,710,l),
(461,710,l),
(461,248,ls),
(461,138,o),
(362,16,o),
(273,16,qs),
(188,16,o),
(90,134,o),
(89,236,q)
);
}
);
width = 600;
},
{
layerId = m002;
shapes = (
{
closed = 1;
nodes = (
(55,232,l),
(55,159,o),
(110,47,o),
(208,-16,o),
(273,-16,qs),
(377,-16,o),
(493,126,o),
(493,248,q),
(493,236,l),
(461,236,l),
(444,236,l),
(423,235,o),
(353,231,o),
(264,231,q),
(179,231,o),
(92,232,o),
(89,232,q)
);
}
);
width = 600;
}
);
unicode = (74,106);
},
{
glyphname = K;
lastChange = "2024-03-08 20:18:20 +0000";
layers = (
{
layerId = m01;
shapes = (
{
closed = 1;
nodes = (
(80,0,l),
(112,0,l),
(112,288,l),
(207,383,l),
(510,0,l),
(549,0,l),
(227,402,l),
(527,710,l),
(487,710,l),
(112,326,l),
(112,710,l),
(80,710,l)
);
}
);
width = 600;
},
{
layerId = m002;
shapes = (
{
closed = 1;
nodes = (
(80,0,l),
(112,0,l),
(112,0,l),
(227,0,l),
(510,0,l),
(549,0,l),
(227,402,l),
(527,710,l),
(487,710,l),
(112,326,l),
(112,710,l),
(80,710,l)
);
}
);
width = 600;
}
);
unicode = (75,107);
},
{
glyphname = L;
lastChange = "2024-03-08 20:18:20 +0000";
layers = (
{
layerId = m01;
shapes = (
{
closed = 1;
nodes = (
(534,0,l),
(534,30,l),
(125,30,l),
(132,21,l),
(132,710,l),
(100,710,l),
(100,0,l)
);
}
);
width = 600;
},
{
layerId = m002;
shapes = (
{
closed = 1;
nodes = (
(534,0,l),
(534,320,l),
(125,320,l),
(132,21,l),
(132,710,l),
(100,710,l),
(100,0,l)
);
}
);
width = 600;
}
);
unicode = (76,108);
},
{
glyphname = M;
lastChange = "2024-03-08 20:18:20 +0000";
layers = (
{
layerId = m01;
shapes = (
{
closed = 1;
nodes = (
(71,0,l),
(103,0,l),
(103,703,l),
(94,703,l),
(284,50,l),
(315,50,l),
(505,701,l),
(497,701,l),
(497,0,l),
(529,0,l),
(529,710,l),
(476,710,l),
(292,64,l),
(308,64,l),
(124,710,l),
(71,710,l)
);
}
);
width = 600;
},
{
layerId = m002;
shapes = (
{
closed = 1;
nodes = (
(71,0,l),
(103,0,l),
(103,703,l),
(94,703,l),
(300,0,l),
(300,0,l),
(505,701,l),
(497,701,l),
(497,0,l),
(529,0,l),
(529,710,l),
(300,710,l),
(292,64,l),
(308,64,l),
(300,710,l),
(71,710,l)
);
}
);
width = 600;
}
);
unicode = (77,109);
},
{
glyphname = N;
lastChange = "2024-03-08 20:18:20 +0000";
layers = (
{
layerId = m01;
shapes = (
{
closed = 1;
nodes = (
(90,0,l),
(122,0,l),
(122,674,l),
(461,0,l),
(510,0,l),
(510,710,l),
(478,710,l),
(478,34,l),
(138,710,l),
(90,710,l)
);
}
);
width = 600;
},
{
layerId = m002;
shapes = (
{
closed = 1;
nodes = (
(90,0,l),
(122,0,l),
(122,674,l),
(510,0,l),
(510,0,l),
(510,710,l),
(478,710,l),
(478,34,l),
(478,710,l),
(90,710,l)
);
}
);
width = 600;
}
);
unicode = (78,110);
},
{
glyphname = O;
lastChange = "2024-03-08 20:18:20 +0000";
layers = (
{
layerId = m01;
shapes = (
{
closed = 1;
nodes = (
(377,-16,o),
(492,74,o),
(554,241,o),
(554,354,qs),
(554,468,o),
(492,636,o),
(377,726,o),
(300,726,qs),
(223,726,o),
(108,636,o),
(46,468,o),
(46,354,qs),
(46,241,o),
(108,74,o),
(223,-16,o),
(300,-16,qs)
);
},
{
closed = 1;
nodes = (
(233,16,o),
(134,98,o),
(80,251,o),
(80,354,qs),
(80,458,o),
(134,611,o),
(233,694,o),
(300,694,qs),
(367,694,o),
(466,611,o),
(520,458,o),
(520,354,qs),
(520,251,o),
(466,98,o),
(367,16,o),
(300,16,qs)
);
}
);
width = 600;
},
{
layerId = m002;
shapes = (
{
closed = 1;
nodes = (
(377,-16,o),
(492,74,o),
(554,241,o),
(554,354,qs),
(554,468,o),
(492,636,o),
(377,726,o),
(300,726,qs),
(223,726,o),
(108,636,o),
(46,468,o),
(46,354,qs),
(46,241,o),
(108,74,o),
(223,-16,o),
(300,-16,qs)
);
},
{
closed = 1;
nodes = (
(233,34,o),
(134,98,o),
(80,251,o),
(80,354,q),
(80,458,o),
(134,611,o),
(222,671,o),
(289,671,q),
(300,676,o),
(300,597,o),
(301,462,o),
(301,358,q),
(301,272,o),
(301,172,o),
(301,94,o),
(300,34,q)
);
}
);
width = 600;
}
);
unicode = (79,111);
},
{
glyphname = P;
lastChange = "2024-03-08 20:18:20 +0000";
layers = (
{
layerId = m01;
shapes = (
{
closed = 1;
nodes = (
(103,710,l),
(103,0,l),
(135,0,l),
(135,305,l),
(300,305,ls),
(373,305,o),
(481,354,o),
(540,444,o),
(540,505,qs),
(540,567,o),
(481,660,o),
(373,710,o),
(300,710,qs)
);
},
{
closed = 1;
nodes = (
(135,335,l),
(135,680,l),
(300,680,ls),
(399,680,o),
(506,589,o),
(506,505,qs),
(506,423,o),
(399,335,o),
(300,335,qs)
);
}
);
width = 600;
},
{
layerId = m002;
shapes = (
{
closed = 1;
nodes = (
(103,710,l),
(103,305,l),
(135,305,l),
(135,305,l),
(300,305,ls),
(373,305,o),
(481,354,o),
(540,444,o),
(540,505,qs),
(540,567,o),
(481,660,o),
(373,710,o),
(300,710,qs)
);
},
{
closed = 1;
nodes = (
(135,335,l),
(135,680,l),
(136,680,ls),
(235,680,o),
(342,589,o),
(342,505,qs),
(342,423,o),
(235,335,o),
(136,335,qs)
);
}
);
width = 600;
}
);
unicode = (80,112);
},
{
glyphname = Q;
lastChange = "2024-03-08 20:18:20 +0000";
layers = (
{
layerId = m01;
shapes = (
{
closed = 1;
nodes = (
(377,-16,o),
(492,74,o),
(554,241,o),
(554,354,qs),
(554,468,o),
(492,636,o),
(377,726,o),
(300,726,qs),
(223,726,o),
(108,636,o),
(46,468,o),
(46,354,qs),
(46,241,o),
(108,74,o),
(223,-16,o),
(300,-16,qs)
);
},
{
closed = 1;
nodes = (
(233,16,o),
(134,98,o),
(80,251,o),
(80,354,qs),
(80,458,o),
(134,611,o),
(233,694,o),
(300,694,qs),
(367,694,o),
(466,611,o),
(520,458,o),
(520,354,qs),
(520,251,o),
(466,98,o),
(367,16,o),
(300,16,qs)
);
},
{
closed = 1;
nodes = (
(488,-69,l),
(526,-69,l),
(320,208,l),
(282,208,l)
);
}
);
width = 600;
},
{
layerId = m002;
shapes = (
{
closed = 1;
nodes = (
(377,-16,o),
(492,74,o),
(554,241,o),
(554,354,qs),
(554,468,o),
(492,636,o),
(377,726,o),
(300,726,qs),
(223,726,o),
(108,636,o),
(46,468,o),
(46,354,qs),
(46,241,o),
(108,74,o),
(223,-16,o),
(300,-16,qs)
);
},
{
closed = 1;
nodes = (
(233,16,o),
(134,98,o),
(80,250,o),
(80,354,qs),
(80,361,o),
(134,437,o),
(233,520,o),
(300,520,q),
(367,520,o),
(466,437,o),
(520,361,o),
(520,354,qs),
(520,250,o),
(466,98,o),
(367,16,o),
(300,16,qs)
);
},
{
closed = 1;
nodes = (
(488,-69,l),
(526,-69,l),
(142,451,l),
(104,451,l)
);
}
);
width = 600;
}
);
unicode = (81,113);
},
{
glyphname = R;
lastChange = "2024-03-08 20:18:20 +0000";
layers = (
{
layerId = m01;
shapes = (
{
closed = 1;
nodes = (
(92,710,l),
(92,0,l),
(124,0,l),
(124,311,l),
(289,311,ls),
(384,311,o),
(476,262,o),
(480,208,qs),
(496,0,l),
(529,0,l),
(512,209,ls),
(507,269,o),
(414,334,o),
(334,333,q),
(359,320,l),
(413,327,o),
(489,375,o),
(529,453,o),
(529,505,qs),
(529,603,o),
(404,710,o),
(289,710,qs)
);
},
{
closed = 1;
nodes = (
(122,341,l),
(122,680,l),
(287,680,ls),
(391,680,o),
(495,593,o),
(495,505,qs),
(495,423,o),
(391,341,o),
(287,341,qs)
);
}
);
width = 600;
},
{
layerId = m002;
shapes = (
{
closed = 1;
nodes = (
(92,710,l),
(92,0,l),
(124,0,l),
(124,311,l),
(289,311,ls),
(384,311,o),
(476,262,o),
(480,208,qs),
(496,0,l),
(529,0,l),
(512,209,ls),
(507,269,o),
(414,334,o),
(334,333,q),
(359,320,l),
(413,327,o),
(489,375,o),
(529,453,o),
(529,505,qs),
(529,603,o),
(404,710,o),
(289,710,qs)
);
},
{
closed = 1;
nodes = (
(122,341,l),
(122,680,l),
(154,682,ls),
(258,688,o),
(362,595,o),
(362,507,qs),
(362,425,o),
(258,349,o),
(154,343,qs)
);
}
);
width = 600;
}
);
unicode = (82,114);
},
{
glyphname = S;
lastChange = "2024-03-08 20:18:20 +0000";
layers = (
{
layerId = m01;
shapes = (
{
closed = 1;
nodes = (
(57,219,l),
(57,156,o),
(125,50,o),
(239,-12,o),
(305,-12,qs),
(370,-12,o),
(477,38,o),
(540,123,o),
(540,174,qs),
(540,242,o),
(431,337,o),
(313,375,qs),
(301,379,ls),
(227,404,o),
(142,449,o),
(104,503,o),
(104,540,qs),
(104,611,o),
(205,694,o),
(287,694,qs),
(343,694,o),
(434,646,o),
(487,559,o),
(487,505,q),
(521,508,l),
(521,568,o),
(459,668,o),
(356,726,o),
(297,726,qs),
(229,726,o),
(127,680,o),
(70,596,o),
(70,540,qs),
(70,474,o),
(173,386,o),
(285,352,qs),
(400,318,o),
(506,234,o),
(506,174,qs),
(506,132,o),
(452,61,o),
(362,20,o),
(310,20,qs),
(251,20,o),
(150,74,o),
(90,167,o),
(90,222,q)
);
}
);
width = 600;
},
{
layerId = m002;
shapes = (
{
closed = 1;
nodes = (
(57,233,l),
(57,170,o),
(125,50,o),
(239,-12,o),
(305,-12,qs),
(370,-12,o),
(477,38,o),
(540,123,o),
(540,174,qs),
(540,242,o),
(431,336,o),
(313,375,qs),
(301,379,ls),
(227,404,o),
(142,449,o),
(104,503,o),
(104,540,qs),
(104,611,o),
(205,694,o),
(287,694,qs),
(343,694,o),
(434,646,o),
(487,559,o),
(487,505,q),
(521,508,l),
(521,568,o),
(459,668,o),
(356,726,o),
(297,726,qs),
(229,726,o),
(127,680,o),
(70,596,o),
(70,540,qs),
(70,474,o),
(173,386,o),
(285,352,qs),
(400,318,o),
(506,234,o),
(506,174,q),
(521,242,o),
(466,238,o),
(374,234,o),
(322,234,q),
(263,234,o),
(227,233,o),
(165,233,o),
(90,233,q)
);
}
);
width = 600;
}
);
unicode = (83,115);
},
{
glyphname = T;
lastChange = "2024-03-08 20:18:20 +0000";
layers = (
{
layerId = m01;
shapes = (
{
closed = 1;
nodes = (
(41,710,l),
(41,680,l),
(284,680,l),
(284,0,l),
(316,0,l),
(316,680,l),
(559,680,l),
(559,710,l)
);
}
);
width = 600;
},
{
layerId = m002;
shapes = (
{
closed = 1;
nodes = (
(41,710,l),
(41,0,l),
(284,0,l),
(284,0,l),
(316,0,l),
(316,680,l),
(316,680,l),
(316,710,l)
);
}
);
width = 600;
}
);
unicode = (84,116);
},
{
glyphname = U;
lastChange = "2024-03-08 20:18:20 +0000";
layers = (
{
layerId = m01;
shapes = (
{
closed = 1;
nodes = (
(520,711,l),
(488,711,l),
(488,248,ls),
(488,136,o),
(391,16,o),
(300,16,qs),
(209,16,o),
(112,136,o),
(112,248,qs),
(112,711,l),
(80,711,l),
(80,248,ls),
(80,121,o),
(194,-16,o),
(300,-16,qs),
(406,-16,o),
(520,121,o),
(520,248,qs)
);
}
);
width = 600;
},
{
layerId = m002;
shapes = (
{
closed = 1;
nodes = (
(520,711,l),
(488,711,l),
(486,340,l),
(466,241,o),
(391,207,o),
(300,207,q),
(209,207,o),
(126,265,o),
(112,350,q),
(112,711,l),
(80,711,l),
(80,248,ls),
(80,121,o),
(194,-16,o),
(300,-16,qs),
(406,-16,o),
(520,121,o),
(520,248,qs)
);
}
);
width = 600;
}
);
unicode = (85,117);
},
{
glyphname = V;
lastChange = "2024-03-08 20:18:20 +0000";
layers = (
{
layerId = m01;
shapes = (
{
closed = 1;
nodes = (
(282,0,l),
(318,0,l),
(567,710,l),
(532,710,l),
(286,-7,l),
(314,-7,l),
(68,710,l),
(33,710,l)
);
}
);
width = 600;
},
{
layerId = m002;
shapes = (
{
closed = 1;
nodes = (
(282,0,l),
(318,0,l),
(314,710,l),
(279,710,l),
(286,-7,l),
(314,-7,l),
(314,710,l),
(33,710,l)
);
}
);
width = 600;
}
);
unicode = (86,118);
},
{
glyphname = W;
lastChange = "2024-03-08 20:18:20 +0000";
layers = (
{
layerId = m01;
shapes = (
{
closed = 1;
nodes = (
(196,0,l),
(309,639,l),
(291,639,l),
(404,0,l),
(450,0,l),
(547,710,l),
(513,710,l),
(421,15,l),
(428,15,l),
(318,650,l),
(282,650,l),
(172,15,l),
(179,15,l),
(87,710,l),
(53,710,l),
(150,0,l)
);
}
);
width = 600;
},
{
layerId = m002;
shapes = (
{
closed = 1;
nodes = (
(196,0,l),
(309,639,l),
(291,639,l),
(404,0,l),
(450,0,l),
(547,710,l),
(513,710,l),
(421,15,l),
(428,15,l),
(327,650,l),
(318,710,l),
(292,710,l),
(179,15,l),
(292,710,l),
(53,710,l),
(150,0,l)
);
}
);
width = 600;
}
);
unicode = (87,119);
},
{
glyphname = X;
lastChange = "2024-03-08 20:18:20 +0000";
layers = (
{
layerId = m01;
shapes = (
{
closed = 1;
nodes = (
(300,381,l),
(108,710,l),
(69,710,l),
(277,357,l),
(62,0,l),
(101,0,l),
(300,334,l),
(499,0,l),
(538,0,l),
(323,357,l),
(531,710,l),
(492,710,l)
);
}
);
width = 600;
},
{
layerId = m002;
shapes = (
{
closed = 1;
nodes = (
(300,381,l),
(108,710,l),
(69,710,l),
(277,357,l),
(62,0,l),
(101,0,l),
(300,0,l),
(499,0,l),
(538,0,l),
(323,357,l),
(531,710,l),
(492,710,l)
);
}
);
width = 600;
}
);
unicode = (88,120);
},
{
glyphname = Y;
lastChange = "2024-03-08 20:18:20 +0000";
layers = (
{
layerId = m01;
shapes = (
{
closed = 1;
nodes = (
(284,290,l),
(284,0,l),
(316,0,l),
(316,290,l),
(542,710,l),
(505,710,l),
(300,326,l),
(95,710,l),
(57,710,l)
);
}
);
width = 600;
},
{
layerId = m002;
shapes = (
{
closed = 1;
nodes = (
(284,290,l),
(284,290,l),
(316,290,l),
(316,290,l),
(542,710,l),
(505,710,l),
(300,710,l),
(95,710,l),
(57,710,l)
);
}
);
width = 600;
}
);
unicode = (89,121);
},
{
glyphname = Z;
lastChange = "2024-03-08 20:18:20 +0000";
layers = (
{
layerId = m01;
shapes = (
{
closed = 1;
nodes = (
(529,710,l),
(81,710,l),
(81,680,l),
(494,680,l),
(64,30,l),
(64,0,l),
(537,0,l),
(537,30,l),
(99,30,l),
(529,680,l)
);
}
);
width = 600;
},
{
layerId = m002;
shapes = (
{
closed = 1;
nodes = (
(529,710,l),
(81,710,l),
(81,680,l),
(79,476,l),
(64,30,l),
(64,0,l),
(99,0,l),
(99,30,l),
(99,30,l),
(529,286,l)
);
}
);
width = 600;
}
);
unicode = (90,122);
},
{
glyphname = zero;
lastChange = "2024-03-08 18:03:57 +0000";
layers = (
{
layerId = m01;
shapes = (
{
closed = 1;
nodes = (
(130,82,l),
(168,82,l),
(473,625,l),
(436,625,l)
);
},
{
closed = 1;
nodes = (
(371,-16,o),
(482,78,o),
(544,247,o),
(544,354,qs),
(544,462,o),
(482,631,o),
(371,726,o),
(300,726,qs),
(229,726,o),
(118,631,o),
(56,462,o),
(56,354,qs),
(56,247,o),
(118,78,o),
(229,-16,o),
(300,-16,qs)
);
},
{
closed = 1;
nodes = (
(239,16,o),
(144,102,o),
(90,256,o),
(90,354,qs),
(90,453,o),
(144,608,o),
(239,694,o),
(300,694,qs),
(361,694,o),
(456,608,o),
(510,453,o),
(510,354,qs),
(510,256,o),
(456,102,o),
(361,16,o),
(300,16,qs)
);
}
);
width = 600;
},
{
layerId = m002;
shapes = (
{
closed = 1;
nodes = (
(130,82,l),
(168,82,l),
(473,625,l),
(436,625,l)
);
},
{
closed = 1;
nodes = (
(371,-16,o),
(482,78,o),
(544,247,o),
(544,354,qs),
(544,462,o),
(482,631,o),
(371,726,o),
(300,726,qs),
(229,726,o),
(118,631,o),
(56,462,o),
(56,354,qs),
(56,247,o),
(118,78,o),
(229,-16,o),
(300,-16,qs)
);
},
{
closed = 1;
nodes = (
(165,100,o),
(144,102,o),
(90,256,o),
(90,354,qs),
(90,453,o),
(144,608,o),
(239,694,o),
(300,694,qs),
(361,694,o),
(456,608,o),
(398,522,o),
(352,450,q),
(323,383,o),
(285,330,o),
(257,278,o),
(236,241,q)
);
}
);
width = 600;
}
);
unicode = 48;
},
{
glyphname = one;
lastChange = "2024-03-08 18:04:47 +0000";
layers = (
{
layerId = m01;
shapes = (
{
closed = 1;
nodes = (
(63,0,l),
(517,0,l),
(517,30,l),
(63,30,l)
);
},
{
closed = 1;
nodes = (
(118,590,l),
(118,564,l),
(277,564,l),
(277,0,l),
(309,0,l),
(309,710,l),
(284,710,l),
(284,648,o),
(232,590,o),
(175,590,qs)
);
}
);
width = 600;
},
{
layerId = m002;
shapes = (
{
closed = 1;
nodes = (
(110,0,l),
(517,0,l),
(517,30,l),
(110,31,l)
);
},
{
closed = 1;
nodes = (
(118,590,l),
(110,21,l),
(277,22,l),
(277,0,l),
(309,0,l),
(309,710,l),
(284,710,l),
(284,648,o),
(232,590,o),
(175,590,qs)
);
}
);
width = 600;
}
);
unicode = 49;
},
{
glyphname = two;
lastChange = "2024-03-08 18:05:48 +0000";
layers = (
{
layerId = m01;
shapes = (
{
closed = 1;
nodes = (
(99,493,l),
(115,590,o),
(226,694,o),
(313,694,qs),
(366,694,o),
(449,651,o),
(495,573,o),
(495,524,qs),
(495,475,o),
(419,377,o),
(335,327,qs),
(318,317,l),
(278,293,ls),
(201,246,o),
(101,152,o),
(52,54,o),
(52,0,q),
(527,0,l),
(527,30,l),
(88,30,l),
(90,90,o),
(223,229,o),
(337,293,qs),
(431,346,o),
(529,466,o),
(529,524,qs),
(529,583,o),
(474,675,o),
(376,726,o),
(313,726,qs),
(247,726,o),
(141,670,o),
(74,566,o),
(65,496,q)
);
}
);
width = 600;
},
{
layerId = m002;
shapes = (
{
closed = 1;
nodes = (
(101,496,ls),
(185,496,o),
(238,493,o),
(325,493,q),
(378,493,o),
(449,494,o),
(527,493,o),
(495,524,q),
(495,475,o),
(419,377,o),
(335,327,qs),
(318,317,l),
(278,293,ls),
(201,247,o),
(101,152,o),
(52,54,o),
(52,0,q),
(527,0,l),
(527,30,l),
(88,30,l),
(90,90,o),
(223,229,o),
(337,293,qs),
(431,346,o),
(529,466,o),
(529,524,qs),
(529,583,o),
(474,675,o),
(376,726,o),
(313,726,qs),
(247,726,o),
(141,670,o),
(74,566,o),
(65,496,q)
);
}
);
width = 600;
}
);
unicode = 50;
},
{
glyphname = three;
lastChange = "2024-03-08 18:08:25 +0000";
layers = (
{
layerId = m01;
shapes = (
{
closed = 1;
nodes = (
(236,398,l),
(236,367,l),
(292,368,ls),
(350,368,o),
(445,325,o),
(500,248,o),
(500,199,qs),
(500,145,o),
(446,61,o),
(351,16,o),
(292,16,qs),
(213,16,o),
(103,105,o),
(96,177,q),
(65,174,l),
(70,118,o),
(131,32,o),
(231,-16,o),
(292,-16,qs),
(360,-16,o),
(471,38,o),
(534,134,o),
(534,195,qs),
(534,245,o),
(484,330,o),
(393,387,o),
(336,395,q),
(336,372,l),
(412,382,o),
(510,478,o),
(510,541,qs),
(510,595,o),
(454,679,o),
(356,726,o),
(295,726,qs),
(248,726,o),
(163,685,o),
(104,611,o),
(95,564,q),
(129,561,l),
(140,619,o),
(235,694,o),
(295,694,qs),
(347,694,o),
(429,655,o),
(476,585,o),
(476,541,qs),
(476,499,o),
(428,434,o),
(344,397,o),
(292,397,qs)
);
}
);
width = 600;
},
{
layerId = m002;
shapes = (
{
closed = 1;
nodes = (
(236,398,l),
(236,367,l),
(236,367,l),
(292,362,o),
(338,325,o),
(393,248,o),
(393,199,q),
(393,145,o),
(360,60,o),
(324,26,o),
(292,16,q),
(213,16,o),
(103,105,o),
(96,177,q),
(65,174,l),
(70,118,o),
(131,32,o),
(231,-16,o),
(292,-16,qs),
(360,-16,o),
(471,38,o),
(534,134,o),
(534,195,qs),
(534,245,o),
(484,330,o),
(393,387,o),
(336,395,q),
(336,372,l),
(412,382,o),
(510,478,o),
(510,541,qs),
(510,595,o),
(454,679,o),
(356,726,o),
(295,726,qs),
(248,726,o),
(163,685,o),
(104,611,o),
(95,564,q),
(129,561,l),
(140,619,o),
(197,679,o),
(244,689,q),
(286,685,o),
(339,645,o),
(369,585,o),
(369,541,q),
(369,499,o),
(338,437,o),
(295,405,o),
(236,398,q)
);
}
);
width = 600;
}
);
unicode = 51;
},
{
glyphname = four;
lastChange = "2024-03-08 18:08:50 +0000";
layers = (
{
layerId = m01;
shapes = (
{
closed = 1;
nodes = (
(433,710,l),
(50,191,l),
(50,165,l),
(433,165,l),
(433,0,l),
(465,0,l),
(465,165,l),
(550,165,l),
(550,195,l),
(465,195,l),
(465,710,l)
);
},
{
closed = 1;
nodes = (
(433,657,l),
(433,195,l),
(92,195,l)
);
}
);
width = 600;
},
{
layerId = m002;
shapes = (
{
closed = 1;
nodes = (
(433,710,l),
(50,191,l),
(50,0,l),
(433,0,l),
(433,0,l),
(465,0,l),
(465,0,l),
(550,0,l),
(550,195,l),
(465,195,l),
(465,710,l)
);
},
{
closed = 1;
nodes = (
(433,657,l),
(433,195,l),
(92,195,l)
);
}
);
width = 600;
}
);
unicode = 52;
},
{
glyphname = five;
lastChange = "2024-03-08 18:10:20 +0000";
layers = (
{
layerId = m01;
shapes = (
{
closed = 1;
nodes = (
(142,710,l),
(88,327,l),
(127,327,l),
(153,378,o),
(252,439,o),
(306,439,qs),
(360,439,o),
(448,385,o),
(499,289,o),
(499,228,qs),
(499,167,o),
(451,70,o),
(367,16,o),
(316,16,qs),
(236,16,o),
(123,103,o),
(112,176,q),
(80,173,l),
(86,119,o),
(150,32,o),
(250,-16,o),
(309,-16,qs),
(372,-16,o),
(474,46,o),
(533,158,o),
(533,228,qs),
(533,298,o),
(474,409,o),
(370,471,o),
(306,471,qs),
(249,471,o),
(135,400,o),
(114,348,q),
(121,334,l),
(170,680,l),
(503,680,l),
(503,710,l)
);
}
);
width = 600;
},
{
layerId = m002;
shapes = (
{
closed = 1;
nodes = (
(142,710,l),
(88,327,l),
(127,327,l),
(153,378,o),
(252,439,o),
(306,439,q),
(360,439,o),
(448,385,o),
(508,250,o),
(499,189,q),
(499,164,o),
(451,164,o),
(377,162,o),
(325,164,q),
(250,168,o),
(173,171,o),
(112,176,q),
(80,178,l),
(86,124,o),
(150,32,o),
(250,-16,o),
(309,-16,qs),
(372,-16,o),
(474,46,o),
(533,158,o),
(533,228,qs),
(533,298,o),
(474,409,o),
(370,471,o),
(306,471,qs),
(249,471,o),
(135,400,o),
(114,348,q),
(121,334,l),
(170,680,l),
(503,680,l),
(503,710,l)
);
}
);
width = 600;
}
);
unicode = 53;
},
{
glyphname = six;
lastChange = "2024-03-08 18:11:21 +0000";
layers = (
{
layerId = m01;
shapes = (
{
closed = 1;
nodes = (
(527,563,l),
(503,638,o),
(400,726,o),
(336,726,qs),
(248,726,o),
(133,607,o),
(79,419,o),
(79,313,qs),
(79,224,o),
(110,106,o),
(144,65,qs),
(176,27,o),
(269,-16,o),
(316,-16,qs),
(378,-16,o),
(479,48,o),
(537,163,o),
(537,236,qs),
(537,305,o),
(479,413,o),
(378,474,o),
(316,474,qs),
(245,474,o),
(124,383,o),
(100,309,q),
(109,292,l),
(112,491,o),
(234,694,o),
(342,694,qs),
(390,694,o),
(472,621,o),
(494,559,q)
);
},
{
closed = 1;
nodes = (
(116,296,o),
(169,389,o),
(260,442,o),
(316,442,qs),
(369,442,o),
(454,389,o),
(503,295,o),
(503,236,qs),
(503,173,o),
(454,72,o),
(369,16,o),
(316,16,qs),
(261,16,o),
(168,75,o),
(114,176,o),
(115,236,qs)
);
}
);
width = 600;
},
{
layerId = m002;
shapes = (
{
closed = 1;
nodes = (
(527,563,l),
(503,638,o),
(400,726,o),
(336,726,qs),
(248,726,o),
(133,607,o),
(79,419,o),
(79,313,qs),
(79,224,o),
(110,106,o),
(144,65,qs),
(176,27,o),
(269,-16,o),
(316,-16,qs),
(378,-16,o),
(479,48,o),
(537,163,o),
(537,236,qs),
(537,305,o),
(479,413,o),
(378,474,o),
(316,474,qs),
(245,474,o),
(124,383,o),
(100,309,q),
(109,292,l),
(112,491,o),
(234,694,o),
(342,694,qs),
(390,694,o),
(472,621,o),
(494,559,q)
);
},
{
closed = 1;
nodes = (
(137,250,o),
(181,279,o),
(255,312,o),
(311,312,q),
(364,312,o),
(449,274,o),
(491,249,o),
(503,236,q),
(503,173,o),
(454,72,o),
(369,16,o),
(316,16,qs),
(261,16,o),
(168,75,o),
(114,176,o),
(115,236,q)
);
}
);
width = 600;
}
);
unicode = 54;
},
{
glyphname = seven;
lastChange = "2024-03-08 18:11:41 +0000";
layers = (
{
layerId = m01;
shapes = (
{
closed = 1;
nodes = (
(77,680,l),
(514,680,l),
(398,549,o),
(261,182,o),
(261,0,q),
(295,0,l),
(295,180,o),
(431,543,o),
(546,672,q),
(546,710,l),
(77,710,l)
);
}
);
width = 600;
},
{
layerId = m002;
shapes = (
{
closed = 1;
nodes = (
(77,500,l),
(514,680,l),
(398,549,o),
(261,182,o),
(261,0,q),
(295,0,l),
(295,180,o),
(431,543,o),
(546,672,q),
(546,710,l),
(77,710,l)
);
}
);
width = 600;
}
);
unicode = 55;
},
{
glyphname = eight;
lastChange = "2024-03-08 18:13:38 +0000";
layers = (
{
layerId = m01;
shapes = (
{
closed = 1;
nodes = (
(368,-16,o),
(477,38,o),
(540,134,o),
(540,195,qs),
(540,261,o),
(456,363,o),
(384,387,q),
(440,408,o),
(506,488,o),
(506,535,qs),
(506,590,o),
(452,677,o),
(358,726,o),
(300,726,qs),
(242,726,o),
(148,677,o),
(94,590,o),
(94,535,qs),
(94,488,o),
(160,409,o),
(217,387,q),
(144,364,o),
(60,262,o),
(60,195,qs),
(60,134,o),
(123,38,o),
(232,-16,o),
(300,-16,qs)
);
},
{
closed = 1;
nodes = (
(94,248,o),
(148,324,o),
(242,368,o),
(300,368,qs),
(358,368,o),
(452,324,o),
(506,248,o),
(506,200,qs),
(506,115,o),
(393,16,o),
(300,16,qs),
(207,16,o),
(94,115,o),
(94,200,qs)
);
},
{
closed = 1;
nodes = (
(128,583,o),
(173,654,o),
(252,694,o),
(300,694,qs),
(348,694,o),
(427,654,o),
(472,583,o),
(472,537,qs),
(472,498,o),
(427,437,o),
(348,403,o),
(300,403,qs),
(252,403,o),
(173,437,o),
(128,498,o),
(128,537,qs)
);
}
);
width = 600;
},
{
layerId = m002;
shapes = (
{
closed = 1;
nodes = (
(368,-16,o),
(477,38,o),
(540,134,o),
(540,195,qs),
(540,261,o),
(456,363,o),
(384,387,q),
(440,408,o),
(506,488,o),
(506,535,qs),
(506,590,o),
(452,677,o),
(358,726,o),
(300,726,qs),
(242,726,o),
(148,677,o),
(94,590,o),
(94,535,qs),
(94,488,o),
(160,409,o),
(217,387,q),
(144,364,o),
(60,262,o),
(60,195,qs),
(60,134,o),
(123,38,o),
(232,-16,o),
(300,-16,qs)
);
},
{
closed = 1;
nodes = (
(94,248,o),
(148,324,o),
(193,356,o),
(251,368,q),
(309,368,o),
(358,340,o),
(368,248,o),
(368,200,q),
(368,115,o),
(344,16,o),
(251,16,q),
(186,35,o),
(94,115,o),
(94,200,q)
);
},
{
closed = 1;
nodes = (
(128,583,o),
(173,654,o),
(215,686,o),
(251,694,q),
(299,694,o),
(344,670,o),
(358,583,o),
(358,537,q),
(358,498,o),
(337,430,o),
(299,403,o),
(251,403,q),
(203,412,o),
(173,437,o),
(128,498,o),
(128,537,q)
);
}
);
width = 600;
}
);
unicode = 56;
},
